<svg width="21" height="11" viewBox="0 0 21 11" fill="none" xmlns="http://www.w3.org/2000/svg">
<path d="M2.25041 5.50033C2.25041 3.71908 3.6853 2.27116 5.45052 2.27116H9.57968V0.291992H5.45052C4.08161 0.291992 2.76878 0.840726 1.80082 1.81748C0.832857 2.79423 0.289063 4.11899 0.289062 5.50033C0.289063 6.88166 0.832857 8.20642 1.80082 9.18317C2.76878 10.1599 4.08161 10.7087 5.45052 10.7087H9.57968V8.72949H5.45052C3.6853 8.72949 2.25041 7.28158 2.25041 5.50033ZM6.48281 6.54199H14.7411V4.45866H6.48281V6.54199ZM15.7734 0.291992H11.6443V2.27116H15.7734C17.5386 2.27116 18.9735 3.71908 18.9735 5.50033C18.9735 7.28158 17.5386 8.72949 15.7734 8.72949H11.6443V10.7087H15.7734C17.1423 10.7087 18.4552 10.1599 19.4231 9.18317C20.3911 8.20642 20.9349 6.88166 20.9349 5.50033C20.9349 4.11899 20.3911 2.79423 19.4231 1.81748C18.4552 0.840726 17.1423 0.291992 15.7734 0.291992Z" fill="#C8C8C8"/>
</svg>
